<?xml version="1.0" encoding="UTF-8" standalone="no"?>
<!-- Created with Inkscape (http://www.inkscape.org/) -->

<svg
   xmlns:dc="http://purl.org/dc/elements/1.1/"
   xmlns:cc="http://creativecommons.org/ns#"
   xmlns:rdf="http://www.w3.org/1999/02/22-rdf-syntax-ns#"
   xmlns:svg="http://www.w3.org/2000/svg"
   xmlns="http://www.w3.org/2000/svg"
   xmlns:sodipodi="http://sodipodi.sourceforge.net/DTD/sodipodi-0.dtd"
   xmlns:inkscape="http://www.inkscape.org/namespaces/inkscape"
   width="112.20785mm"
   height="39.16201mm"
   viewBox="0 0 112.20785 39.16201"
   version="1.1"
   id="svg8"
   inkscape:version="0.92.3 (2405546, 2018-03-11)"
   sodipodi:docname="logo-light.svg">
  <defs
     id="defs2" />
  <sodipodi:namedview
     id="base"
     pagecolor="#616161"
     bordercolor="#666666"
     borderopacity="1.0"
     inkscape:pageopacity="1"
     inkscape:pageshadow="2"
     inkscape:zoom="1.1507576"
     inkscape:cx="-87.427012"
     inkscape:cy="126.90895"
     inkscape:document-units="mm"
     inkscape:current-layer="layer1"
     showgrid="false"
     inkscape:window-width="1920"
     inkscape:window-height="1017"
     inkscape:window-x="-8"
     inkscape:window-y="-8"
     inkscape:window-maximized="1"
     fit-margin-top="0"
     fit-margin-left="0"
     fit-margin-right="0"
     fit-margin-bottom="0" />
  <metadata
     id="metadata5">
    <rdf:RDF>
      <cc:Work
         rdf:about="">
        <dc:format>image/svg+xml</dc:format>
        <dc:type
           rdf:resource="http://purl.org/dc/dcmitype/StillImage" />
        <dc:title />
      </cc:Work>
    </rdf:RDF>
  </metadata>
  <g
     inkscape:label="Layer 1"
     inkscape:groupmode="layer"
     id="layer1"
     transform="translate(-52.418789,-146.1341)">
    <g
       id="g862"
       transform="matrix(0.26458333,0,0,0.26458333,408.70194,311.08495)" />
    <g
       id="g864"
       transform="matrix(0.26458333,0,0,0.26458333,408.70194,311.08495)" />
    <g
       id="g866"
       transform="matrix(0.26458333,0,0,0.26458333,408.70194,311.08495)" />
    <g
       id="g868"
       transform="matrix(0.26458333,0,0,0.26458333,408.70194,311.08495)" />
    <g
       id="g870"
       transform="matrix(0.26458333,0,0,0.26458333,408.70194,311.08495)" />
    <g
       id="g872"
       transform="matrix(0.26458333,0,0,0.26458333,408.70194,311.08495)" />
    <g
       id="g874"
       transform="matrix(0.26458333,0,0,0.26458333,408.70194,311.08495)" />
    <g
       id="g876"
       transform="matrix(0.26458333,0,0,0.26458333,408.70194,311.08495)" />
    <g
       id="g878"
       transform="matrix(0.26458333,0,0,0.26458333,408.70194,311.08495)" />
    <g
       id="g880"
       transform="matrix(0.26458333,0,0,0.26458333,408.70194,311.08495)" />
    <g
       id="g882"
       transform="matrix(0.26458333,0,0,0.26458333,408.70194,311.08495)" />
    <g
       id="g884"
       transform="matrix(0.26458333,0,0,0.26458333,408.70194,311.08495)" />
    <g
       id="g886"
       transform="matrix(0.26458333,0,0,0.26458333,408.70194,311.08495)" />
    <g
       id="g888"
       transform="matrix(0.26458333,0,0,0.26458333,408.70194,311.08495)" />
    <g
       id="g890"
       transform="matrix(0.26458333,0,0,0.26458333,408.70194,311.08495)" />
    <path
       id="path857"
       style="font-style:normal;font-variant:normal;font-weight:600;font-stretch:normal;font-size:120px;line-height:1.25;font-family:Montserrat;-inkscape-font-specification:'Montserrat, Semi-Bold';font-variant-ligatures:normal;font-variant-caps:normal;font-variant-numeric:normal;font-feature-settings:normal;text-align:start;letter-spacing:0px;word-spacing:0px;writing-mode:lr-tb;text-anchor:start;fill:#f9fdff;fill-opacity:1;stroke:none;stroke-width:1.05184138"
       d="m 60.180012,155.27967 q 3.784397,0 5.77281,1.79163 2.020483,1.76019 2.020483,5.34345 v 9.83823 h -3.784398 v -2.04309 q -0.737636,1.10013 -2.116697,1.69733 -1.346989,0.56578 -3.271259,0.56578 -1.92427,0 -3.367472,-0.62864 -1.443203,-0.66007 -2.244982,-1.79163 -0.769708,-1.16298 -0.769708,-2.60886 0,-2.2631 1.699772,-3.61468 1.731843,-1.38301 5.420027,-1.38301 h 4.425821 v -0.25146 q 0,-1.76019 -1.090419,-2.70315 -1.058349,-0.94297 -3.175046,-0.94297 -1.443202,0 -2.854334,0.44005 -1.37906,0.44005 -2.341195,1.22585 l -1.571487,-2.86031 q 1.346989,-1.00583 3.239188,-1.54017 1.892199,-0.53435 4.008896,-0.53435 z m -0.54521,14.33302 q 1.507345,0 2.661907,-0.66008 1.186633,-0.6915 1.6677,-1.94878 v -1.94879 h -4.13718 q -3.463686,0 -3.463686,2.23167 0,1.06869 0.865921,1.69734 0.865922,0.62864 2.405338,0.62864 z"
       inkscape:connector-curvature="0" />
    <path
       id="path859"
       style="font-style:normal;font-variant:normal;font-weight:600;font-stretch:normal;font-size:120px;line-height:1.25;font-family:Montserrat;-inkscape-font-specification:'Montserrat, Semi-Bold';font-variant-ligatures:normal;font-variant-caps:normal;font-variant-numeric:normal;font-feature-settings:normal;text-align:start;letter-spacing:0px;word-spacing:0px;writing-mode:lr-tb;text-anchor:start;fill:#f9fdff;fill-opacity:1;stroke:none;stroke-width:1.05184138"
       d="m 78.409965,172.473 q -2.084626,0 -4.073038,-0.53434 -1.988413,-0.53435 -3.175046,-1.35158 l 1.539416,-2.98604 q 1.154562,0.75436 2.758121,1.22584 1.635629,0.44005 3.207116,0.44005 3.591971,0 3.591971,-1.85449 0,-0.88009 -0.930064,-1.22585 -0.897993,-0.34575 -2.918476,-0.66007 -2.116697,-0.31432 -3.463686,-0.72294 -1.314919,-0.40861 -2.309125,-1.41444 -0.962135,-1.03726 -0.962135,-2.86032 0,-2.38883 2.020484,-3.80327 2.052555,-1.44588 5.516241,-1.44588 1.763914,0 3.527828,0.40862 1.763915,0.37718 2.886405,1.03726 l -1.539416,2.98604 q -2.180839,-1.25728 -4.906888,-1.25728 -1.763914,0 -2.693978,0.53434 -0.897993,0.50292 -0.897993,1.35158 0,0.94296 0.962135,1.35158 0.994206,0.37718 3.046761,0.72294 2.052555,0.31432 3.367473,0.72293 1.314917,0.40862 2.244981,1.38301 0.962135,0.9744 0.962135,2.76602 0,2.35741 -2.084626,3.77185 -2.084625,1.41444 -5.676596,1.41444 z"
       inkscape:connector-curvature="0" />
    <path
       id="path861"
       style="font-style:normal;font-variant:normal;font-weight:600;font-stretch:normal;font-size:120px;line-height:1.25;font-family:Montserrat;-inkscape-font-specification:'Montserrat, Semi-Bold';font-variant-ligatures:normal;font-variant-caps:normal;font-variant-numeric:normal;font-feature-settings:normal;text-align:start;letter-spacing:0px;word-spacing:0px;writing-mode:lr-tb;text-anchor:start;fill:#f9fdff;fill-opacity:1;stroke:none;stroke-width:1.05184138"
       d="m 97.512353,172.473 q -2.661906,0 -4.778603,-1.10012 -2.116697,-1.10012 -3.303331,-3.04891 -1.186633,-1.98022 -1.186633,-4.46335 0,-2.48313 1.186633,-4.43192 1.186634,-1.94878 3.271259,-3.04891 2.116697,-1.10012 4.810675,-1.10012 2.533627,0 4.425817,1.00583 1.92427,1.00582 2.88641,2.89175 l -3.07883,1.76019 q -0.73764,-1.16299 -1.86013,-1.72876 -1.09042,-0.59721 -2.405338,-0.59721 -2.244981,0 -3.720255,1.44587 -1.475274,1.41445 -1.475274,3.80328 0,2.38884 1.443203,3.83471 1.475273,1.41444 3.752326,1.41444 1.314918,0 2.405338,-0.56577 1.12249,-0.59721 1.86013,-1.7602 l 3.07883,1.7602 q -0.99421,1.88592 -2.91848,2.92318 -1.8922,1.00582 -4.393747,1.00582 z"
       inkscape:connector-curvature="0" />
    <path
       id="path863"
       style="font-style:normal;font-variant:normal;font-weight:600;font-stretch:normal;font-size:120px;line-height:1.25;font-family:Montserrat;-inkscape-font-specification:'Montserrat, Semi-Bold';font-variant-ligatures:normal;font-variant-caps:normal;font-variant-numeric:normal;font-feature-settings:normal;text-align:start;letter-spacing:0px;word-spacing:0px;writing-mode:lr-tb;text-anchor:start;fill:#f9fdff;fill-opacity:1;stroke:none;stroke-width:1.05184138"
       d="m 124.10787,163.95492 q 0,0.40861 -0.0641,1.16298 h -13.43782 q 0.35278,1.85449 1.82805,2.95462 1.50735,1.06869 3.72026,1.06869 2.82226,0 4.65032,-1.82306 l 2.14877,2.42026 q -1.15457,1.35158 -2.91848,2.04309 -1.76391,0.6915 -3.97682,0.6915 -2.82227,0 -4.97104,-1.10012 -2.14876,-1.10012 -3.3354,-3.04891 -1.15456,-1.98022 -1.15456,-4.46335 0,-2.4517 1.12249,-4.40049 1.15456,-1.98021 3.17505,-3.08034 2.02048,-1.10012 4.5541,-1.10012 2.50155,0 4.4579,1.10012 1.98841,1.06869 3.07883,3.04891 1.12249,1.94879 1.12249,4.52622 z m -8.65922,-5.53204 q -1.92427,0 -3.27126,1.13155 -1.31491,1.10012 -1.60355,2.95461 h 9.71756 q -0.25657,-1.82306 -1.57149,-2.95461 -1.31492,-1.13155 -3.27126,-1.13155 z"
       inkscape:connector-curvature="0" />
    <path
       id="path865"
       style="font-style:normal;font-variant:normal;font-weight:600;font-stretch:normal;font-size:120px;line-height:1.25;font-family:Montserrat;-inkscape-font-specification:'Montserrat, Semi-Bold';font-variant-ligatures:normal;font-variant-caps:normal;font-variant-numeric:normal;font-feature-settings:normal;text-align:start;letter-spacing:0px;word-spacing:0px;writing-mode:lr-tb;text-anchor:start;fill:#f9fdff;fill-opacity:1;stroke:none;stroke-width:1.05184138"
       d="m 133.21909,172.473 q -2.08463,0 -4.07304,-0.53434 -1.98841,-0.53435 -3.17505,-1.35158 l 1.53942,-2.98604 q 1.15456,0.75436 2.75812,1.22584 1.63563,0.44005 3.20712,0.44005 3.59197,0 3.59197,-1.85449 0,-0.88009 -0.93007,-1.22585 -0.89799,-0.34575 -2.91847,-0.66007 -2.1167,-0.31432 -3.46369,-0.72294 -1.31492,-0.40861 -2.30912,-1.41444 -0.96214,-1.03726 -0.96214,-2.86032 0,-2.38883 2.02048,-3.80327 2.05256,-1.44588 5.51625,-1.44588 1.76391,0 3.52782,0.40862 1.76392,0.37718 2.88641,1.03726 l -1.53942,2.98604 q -2.18084,-1.25728 -4.90689,-1.25728 -1.76391,0 -2.69397,0.53434 -0.898,0.50292 -0.898,1.35158 0,0.94296 0.96214,1.35158 0.9942,0.37718 3.04676,0.72294 2.05255,0.31432 3.36747,0.72293 1.31492,0.40862 2.24498,1.38301 0.96214,0.9744 0.96214,2.76602 0,2.35741 -2.08463,3.77185 -2.08462,1.41444 -5.67659,1.41444 z"
       inkscape:connector-curvature="0" />
    <path
       id="path867"
       style="font-style:normal;font-variant:normal;font-weight:600;font-stretch:normal;font-size:120px;line-height:1.25;font-family:Montserrat;-inkscape-font-specification:'Montserrat, Semi-Bold';font-variant-ligatures:normal;font-variant-caps:normal;font-variant-numeric:normal;font-feature-settings:normal;text-align:start;letter-spacing:0px;word-spacing:0px;writing-mode:lr-tb;text-anchor:start;fill:#f9fdff;fill-opacity:1;stroke:none;stroke-width:1.05184138"
       d="m 151.00656,155.27967 q 3.78439,0 5.77281,1.79163 2.02048,1.76019 2.02048,5.34345 v 9.83823 h -3.7844 v -2.04309 q -0.73763,1.10013 -2.11669,1.69733 -1.34699,0.56578 -3.27126,0.56578 -1.92427,0 -3.36748,-0.62864 -1.4432,-0.66007 -2.24498,-1.79163 -0.76971,-1.16298 -0.76971,-2.60886 0,-2.2631 1.69978,-3.61468 1.73184,-1.38301 5.42002,-1.38301 h 4.42582 v -0.25146 q 0,-1.76019 -1.09042,-2.70315 -1.05834,-0.94297 -3.17504,-0.94297 -1.4432,0 -2.85433,0.44005 -1.37906,0.44005 -2.3412,1.22585 l -1.57149,-2.86031 q 1.34699,-1.00583 3.23919,-1.54017 1.8922,-0.53435 4.0089,-0.53435 z m -0.54521,14.33302 q 1.50734,0 2.6619,-0.66008 1.18664,-0.6915 1.6677,-1.94878 v -1.94879 h -4.13718 q -3.46368,0 -3.46368,2.23167 0,1.06869 0.86592,1.69734 0.86592,0.62864 2.40534,0.62864 z"
       inkscape:connector-curvature="0" />
    <g
       aria-label="solutions"
       transform="matrix(0.27638023,0,0,0.25328997,47.314668,143.12736)"
       style="font-style:italic;font-variant:normal;font-weight:bold;font-stretch:normal;font-size:53.33333206px;line-height:1.25;font-family:Montserrat;-inkscape-font-specification:'Montserrat, Bold Italic';font-variant-ligatures:normal;font-variant-caps:normal;font-variant-numeric:normal;font-feature-settings:normal;text-align:start;letter-spacing:0px;word-spacing:0px;writing-mode:lr-tb;text-anchor:start;fill:#f15a24;fill-opacity:1;stroke:none;stroke-width:2.22678924"
       id="text853-7-6-6-0-4-55">
      <path
         inkscape:connector-curvature="0"
         d="m 160.07697,166.48409 q -3.73333,0 -7.09333,-0.8 -3.30667,-0.85334 -5.17333,-2.18667 l 3.2,-6.02667 q 1.86666,1.22667 4.53333,1.97334 2.72,0.74666 5.44,0.74666 2.82667,0 4.21333,-0.69333 1.38667,-0.74667 1.38667,-2.08 0,-1.06667 -1.22667,-1.54667 -1.22666,-0.48 -3.94666,-1.01333 -3.09334,-0.58667 -5.12,-1.28 -1.97334,-0.69333 -3.46667,-2.24 -1.44,-1.6 -1.44,-4.32 0,-4.74667 3.94667,-7.41333 4,-2.66667 10.45333,-2.66667 2.98667,0 5.81333,0.64 2.82667,0.64 4.8,1.76 l -2.98666,6.08 q -3.52,-2.18667 -8.48,-2.18667 -2.72,0 -4.16,0.8 -1.38667,0.8 -1.38667,2.02667 0,1.12 1.22667,1.65333 1.22666,0.48 4.10666,1.06667 3.04,0.58667 4.96,1.28 1.97334,0.64 3.41334,2.18667 1.44,1.54666 1.44,4.21333 0,4.8 -4.05334,7.41333 -4,2.61334 -10.4,2.61334 z"
         style="font-style:italic;font-variant:normal;font-weight:bold;font-stretch:normal;font-size:53.33333206px;font-family:Montserrat;-inkscape-font-specification:'Montserrat, Bold Italic';font-variant-ligatures:normal;font-variant-caps:normal;font-variant-numeric:normal;font-feature-settings:normal;text-align:start;writing-mode:lr-tb;text-anchor:start;fill:#f15a24;fill-opacity:1;stroke-width:2.22678924"
         id="path838" />
      <path
         inkscape:connector-curvature="0"
         d="m 192.94364,166.48409 q -4.32,0 -7.62667,-1.6 -3.25333,-1.6 -5.06667,-4.48 -1.76,-2.93334 -1.76,-6.77334 0,-4.74666 2.24,-8.53333 2.24,-3.78667 6.18667,-5.97333 3.94667,-2.18667 8.90667,-2.18667 4.37333,0 7.62666,1.6 3.25334,1.6 5.01334,4.53333 1.81333,2.88 1.81333,6.72 0,4.74667 -2.24,8.53334 -2.18667,3.78666 -6.18667,5.97333 -3.94666,2.18667 -8.90666,2.18667 z m 0.53333,-6.88 q 2.4,0 4.32,-1.17334 1.92,-1.22666 2.98667,-3.36 1.06666,-2.13333 1.06666,-4.90666 0,-2.93334 -1.70666,-4.64 -1.70667,-1.70667 -4.8,-1.70667 -2.45334,0 -4.37334,1.22667 -1.92,1.17333 -2.98666,3.30666 -1.06667,2.13334 -1.06667,4.90667 0,2.93333 1.70667,4.64 1.76,1.70667 4.85333,1.70667 z"
         style="font-style:italic;font-variant:normal;font-weight:bold;font-stretch:normal;font-size:53.33333206px;font-family:Montserrat;-inkscape-font-specification:'Montserrat, Bold Italic';font-variant-ligatures:normal;font-variant-caps:normal;font-variant-numeric:normal;font-feature-settings:normal;text-align:start;writing-mode:lr-tb;text-anchor:start;fill:#f15a24;fill-opacity:1;stroke-width:2.22678924"
         id="path840" />
      <path
         inkscape:connector-curvature="0"
         d="m 220.74614,126.48409 h 8.32 l -7.89334,39.57333 h -8.32 z"
         style="font-style:italic;font-variant:normal;font-weight:bold;font-stretch:normal;font-size:53.33333206px;font-family:Montserrat;-inkscape-font-specification:'Montserrat, Bold Italic';font-variant-ligatures:normal;font-variant-caps:normal;font-variant-numeric:normal;font-feature-settings:normal;text-align:start;writing-mode:lr-tb;text-anchor:start;fill:#f15a24;fill-opacity:1;stroke-width:2.22678924"
         id="path842" />
      <path
         inkscape:connector-curvature="0"
         d="m 263.5078,137.36409 -5.70667,28.69333 h -7.89333 l 0.58667,-3.09333 q -1.86667,1.76 -4.26667,2.66666 -2.4,0.85334 -5.06667,0.85334 -4.69333,0 -7.52,-2.56 -2.77333,-2.56 -2.77333,-7.2 0,-1.76 0.37333,-3.46667 l 3.14667,-15.89333 h 8.32 l -3.04,15.36 q -0.21333,1.01333 -0.21333,2.08 0,4.48 4.8,4.48 3.14666,0 5.17333,-1.81334 2.08,-1.86666 2.82667,-5.54666 l 2.93333,-14.56 z"
         style="font-style:italic;font-variant:normal;font-weight:bold;font-stretch:normal;font-size:53.33333206px;font-family:Montserrat;-inkscape-font-specification:'Montserrat, Bold Italic';font-variant-ligatures:normal;font-variant-caps:normal;font-variant-numeric:normal;font-feature-settings:normal;text-align:start;writing-mode:lr-tb;text-anchor:start;fill:#f15a24;fill-opacity:1;stroke-width:2.22678924"
         id="path844" />
      <path
         inkscape:connector-curvature="0"
         d="m 276.8678,155.92409 q -0.10667,0.42666 -0.10667,1.17333 0,2.77333 3.04,2.77333 1.65333,0 3.36,-1.01333 l 1.22667,5.92 q -2.77334,1.70667 -7.14667,1.70667 -4.05333,0 -6.50667,-2.13334 -2.45333,-2.13333 -2.45333,-5.86666 0,-1.06667 0.26667,-2.50667 l 2.29333,-11.57333 h -4.42667 l 1.28,-6.4 h 4.42667 l 1.38667,-6.98667 h 8.32 l -1.38667,6.98667 h 7.14667 l -1.28,6.4 h -7.14667 z"
         style="font-style:italic;font-variant:normal;font-weight:bold;font-stretch:normal;font-size:53.33333206px;font-family:Montserrat;-inkscape-font-specification:'Montserrat, Bold Italic';font-variant-ligatures:normal;font-variant-caps:normal;font-variant-numeric:normal;font-feature-settings:normal;text-align:start;writing-mode:lr-tb;text-anchor:start;fill:#f15a24;fill-opacity:1;stroke-width:2.22678924"
         id="path846" />
      <path
         inkscape:connector-curvature="0"
         d="m 294.49696,137.36409 h 8.26667 l -5.70667,28.69333 h -8.26666 z m 5.54667,-4 q -2.13333,0 -3.52,-1.22667 -1.33333,-1.28 -1.33333,-3.09333 0,-2.13334 1.49333,-3.52 1.54667,-1.44 4,-1.44 2.18667,0 3.52,1.22666 1.38667,1.17334 1.38667,2.93334 0,2.29333 -1.54667,3.73333 -1.54667,1.38667 -4,1.38667 z"
         style="font-style:italic;font-variant:normal;font-weight:bold;font-stretch:normal;font-size:53.33333206px;font-family:Montserrat;-inkscape-font-specification:'Montserrat, Bold Italic';font-variant-ligatures:normal;font-variant-caps:normal;font-variant-numeric:normal;font-feature-settings:normal;text-align:start;writing-mode:lr-tb;text-anchor:start;fill:#f15a24;fill-opacity:1;stroke-width:2.22678924"
         id="path848" />
      <path
         inkscape:connector-curvature="0"
         d="m 319.81863,166.48409 q -4.32,0 -7.62666,-1.6 -3.25334,-1.6 -5.06667,-4.48 -1.76,-2.93334 -1.76,-6.77334 0,-4.74666 2.24,-8.53333 2.24,-3.78667 6.18667,-5.97333 3.94666,-2.18667 8.90666,-2.18667 4.37334,0 7.62667,1.6 3.25333,1.6 5.01333,4.53333 1.81334,2.88 1.81334,6.72 0,4.74667 -2.24,8.53334 -2.18667,3.78666 -6.18667,5.97333 -3.94667,2.18667 -8.90667,2.18667 z m 0.53334,-6.88 q 2.4,0 4.32,-1.17334 1.92,-1.22666 2.98666,-3.36 1.06667,-2.13333 1.06667,-4.90666 0,-2.93334 -1.70667,-4.64 -1.70666,-1.70667 -4.8,-1.70667 -2.45333,0 -4.37333,1.22667 -1.92,1.17333 -2.98667,3.30666 -1.06666,2.13334 -1.06666,4.90667 0,2.93333 1.70666,4.64 1.76,1.70667 4.85334,1.70667 z"
         style="font-style:italic;font-variant:normal;font-weight:bold;font-stretch:normal;font-size:53.33333206px;font-family:Montserrat;-inkscape-font-specification:'Montserrat, Bold Italic';font-variant-ligatures:normal;font-variant-caps:normal;font-variant-numeric:normal;font-feature-settings:normal;text-align:start;writing-mode:lr-tb;text-anchor:start;fill:#f15a24;fill-opacity:1;stroke-width:2.22678924"
         id="path850" />
      <path
         inkscape:connector-curvature="0"
         d="m 362.1278,136.93742 q 4.79999,0 7.62666,2.56 2.82667,2.50667 2.82667,7.2 0,1.76 -0.37334,3.46667 l -3.2,15.89333 h -8.31999 l 3.09333,-15.36 q 0.21333,-0.90667 0.21333,-1.97333 0,-2.24 -1.22666,-3.41334 -1.22667,-1.17333 -3.68,-1.17333 -3.2,0 -5.33334,1.86667 -2.08,1.81333 -2.82666,5.49333 l -2.88,14.56 h -8.32 l 5.70666,-28.69333 h 7.89334 l -0.64,3.09333 q 3.84,-3.52 9.44,-3.52 z"
         style="font-style:italic;font-variant:normal;font-weight:bold;font-stretch:normal;font-size:53.33333206px;font-family:Montserrat;-inkscape-font-specification:'Montserrat, Bold Italic';font-variant-ligatures:normal;font-variant-caps:normal;font-variant-numeric:normal;font-feature-settings:normal;text-align:start;writing-mode:lr-tb;text-anchor:start;fill:#f15a24;fill-opacity:1;stroke-width:2.22678924"
         id="path852" />
      <path
         inkscape:connector-curvature="0"
         d="m 387.05613,166.48409 q -3.73333,0 -7.09333,-0.8 -3.30667,-0.85334 -5.17334,-2.18667 l 3.2,-6.02667 q 1.86667,1.22667 4.53334,1.97334 2.72,0.74666 5.44,0.74666 2.82666,0 4.21333,-0.69333 1.38667,-0.74667 1.38667,-2.08 0,-1.06667 -1.22667,-1.54667 -1.22667,-0.48 -3.94667,-1.01333 -3.09333,-0.58667 -5.12,-1.28 -1.97333,-0.69333 -3.46666,-2.24 -1.44,-1.6 -1.44,-4.32 0,-4.74667 3.94666,-7.41333 4,-2.66667 10.45334,-2.66667 2.98666,0 5.81333,0.64 2.82666,0.64 4.8,1.76 l -2.98667,6.08 q -3.52,-2.18667 -8.48,-2.18667 -2.72,0 -4.16,0.8 -1.38666,0.8 -1.38666,2.02667 0,1.12 1.22666,1.65333 1.22667,0.48 4.10667,1.06667 3.04,0.58667 4.96,1.28 1.97333,0.64 3.41333,2.18667 1.44,1.54666 1.44,4.21333 0,4.8 -4.05333,7.41333 -4,2.61334 -10.4,2.61334 z"
         style="font-style:italic;font-variant:normal;font-weight:bold;font-stretch:normal;font-size:53.33333206px;font-family:Montserrat;-inkscape-font-specification:'Montserrat, Bold Italic';font-variant-ligatures:normal;font-variant-caps:normal;font-variant-numeric:normal;font-feature-settings:normal;text-align:start;writing-mode:lr-tb;text-anchor:start;fill:#f15a24;fill-opacity:1;stroke-width:2.22678924"
         id="path854" />
    </g>
    <path
       style="opacity:1;fill:#f15a24;fill-opacity:1;stroke:none;stroke-width:1.10706234;stroke-linecap:butt;stroke-linejoin:miter;stroke-miterlimit:4;stroke-dasharray:none;stroke-opacity:1"
       d="m 145.70165,152.9437 18.92499,-6.8096 -2.37932,18.23993 c -1.88424,-11.50444 -4.04265,-13.16122 -16.54567,-11.43033 z"
       id="rect1020-6"
       inkscape:connector-curvature="0"
       sodipodi:nodetypes="cccc"
       inkscape:export-xdpi="71"
       inkscape:export-ydpi="71" />
  </g>
</svg>
