<?xml version="1.0" encoding="UTF-8" standalone="no"?>
<!-- Generator: Adobe Illustrator 16.0.0, SVG Export Plug-In . SVG Version: 6.00 Build 0)  -->

<svg
   xmlns:dc="http://purl.org/dc/elements/1.1/"
   xmlns:cc="http://creativecommons.org/ns#"
   xmlns:rdf="http://www.w3.org/1999/02/22-rdf-syntax-ns#"
   xmlns:svg="http://www.w3.org/2000/svg"
   xmlns="http://www.w3.org/2000/svg"
   xmlns:sodipodi="http://sodipodi.sourceforge.net/DTD/sodipodi-0.dtd"
   xmlns:inkscape="http://www.inkscape.org/namespaces/inkscape"
   version="1.1"
   id="Capa_1"
   x="0px"
   y="0px"
   width="424.09265"
   height="148.0139"
   viewBox="0 0 424.09264 148.0139"
   xml:space="preserve"
   sodipodi:docname="logo-1.svg"
   inkscape:version="0.92.3 (2405546, 2018-03-11)"
   inkscape:export-filename="C:\Users\dentale\Desktop\new Ascesa\logo\logo-triangle2-font.png"
   inkscape:export-xdpi="71"
   inkscape:export-ydpi="71"><metadata
   id="metadata897"><rdf:RDF><cc:Work
       rdf:about=""><dc:format>image/svg+xml</dc:format><dc:type
         rdf:resource="http://purl.org/dc/dcmitype/StillImage" /><dc:title></dc:title></cc:Work></rdf:RDF></metadata><defs
   id="defs895">







</defs><sodipodi:namedview
   pagecolor="#ffffff"
   bordercolor="#666666"
   borderopacity="1"
   objecttolerance="10"
   gridtolerance="10"
   guidetolerance="10"
   inkscape:pageopacity="0"
   inkscape:pageshadow="2"
   inkscape:window-width="1364"
   inkscape:window-height="671"
   id="namedview893"
   showgrid="false"
   fit-margin-top="0"
   fit-margin-left="0"
   fit-margin-right="0"
   fit-margin-bottom="0"
   inkscape:zoom="1.1844334"
   inkscape:cx="-57.735793"
   inkscape:cy="122.8781"
   inkscape:window-x="-8"
   inkscape:window-y="-8"
   inkscape:window-maximized="1"
   inkscape:current-layer="Capa_1" />

<g
   id="g862"
   transform="translate(1346.582,623.43629)">
</g>
<g
   id="g864"
   transform="translate(1346.582,623.43629)">
</g>
<g
   id="g866"
   transform="translate(1346.582,623.43629)">
</g>
<g
   id="g868"
   transform="translate(1346.582,623.43629)">
</g>
<g
   id="g870"
   transform="translate(1346.582,623.43629)">
</g>
<g
   id="g872"
   transform="translate(1346.582,623.43629)">
</g>
<g
   id="g874"
   transform="translate(1346.582,623.43629)">
</g>
<g
   id="g876"
   transform="translate(1346.582,623.43629)">
</g>
<g
   id="g878"
   transform="translate(1346.582,623.43629)">
</g>
<g
   id="g880"
   transform="translate(1346.582,623.43629)">
</g>
<g
   id="g882"
   transform="translate(1346.582,623.43629)">
</g>
<g
   id="g884"
   transform="translate(1346.582,623.43629)">
</g>
<g
   id="g886"
   transform="translate(1346.582,623.43629)">
</g>
<g
   id="g888"
   transform="translate(1346.582,623.43629)">
</g>
<g
   id="g890"
   transform="translate(1346.582,623.43629)">
</g>


<g
   id="g889"
   transform="translate(-19.291168,-11.364047)"><g
     id="text853-7-6-8-4-2-4-7"
     style="font-style:normal;font-variant:normal;font-weight:600;font-stretch:normal;font-size:120px;line-height:1.25;font-family:Montserrat;-inkscape-font-specification:'Montserrat, Semi-Bold';font-variant-ligatures:normal;font-variant-caps:normal;font-variant-numeric:normal;font-feature-settings:normal;text-align:start;letter-spacing:0px;word-spacing:0px;writing-mode:lr-tb;text-anchor:start;fill:#006196;fill-opacity:1;stroke:none;stroke-width:3.97546339"
     transform="scale(1.0101155,0.98998579)"
     aria-label="ascesa"><path
       id="path857"
       style="font-style:normal;font-variant:normal;font-weight:600;font-stretch:normal;font-size:120px;font-family:Montserrat;-inkscape-font-specification:'Montserrat, Semi-Bold';font-variant-ligatures:normal;font-variant-caps:normal;font-variant-numeric:normal;font-feature-settings:normal;text-align:start;writing-mode:lr-tb;text-anchor:start;fill:#006196;fill-opacity:1;stroke-width:3.97546339"
       d="m 48.137982,46.394603 q 14.16,0 21.6,6.84 7.56,6.72 7.56,20.4 V 111.1946 h -14.16 v -7.8 q -2.76,4.2 -7.92,6.48 -5.04,2.16 -12.24,2.16 -7.2,0 -12.6,-2.4 -5.4,-2.52 -8.4,-6.84 -2.88,-4.439997 -2.88,-9.959997 0,-8.64 6.36,-13.8 6.48,-5.28 20.28,-5.28 h 16.56 v -0.96 q 0,-6.72 -4.08,-10.32 -3.96,-3.6 -11.88,-3.6 -5.4,0 -10.68,1.68 -5.16,1.68 -8.76,4.68 l -5.88,-10.92 q 5.04,-3.84 12.12,-5.88 7.08,-2.04 15,-2.04 z m -2.04,54.719997 q 5.64,0 9.96,-2.519997 4.44,-2.64 6.24,-7.44 v -7.44 h -15.48 q -12.96,0 -12.96,8.52 0,4.08 3.24,6.48 3.24,2.399997 9,2.399997 z"
       inkscape:connector-curvature="0" /><path
       id="path859"
       style="font-style:normal;font-variant:normal;font-weight:600;font-stretch:normal;font-size:120px;font-family:Montserrat;-inkscape-font-specification:'Montserrat, Semi-Bold';font-variant-ligatures:normal;font-variant-caps:normal;font-variant-numeric:normal;font-feature-settings:normal;text-align:start;writing-mode:lr-tb;text-anchor:start;fill:#006196;fill-opacity:1;stroke-width:3.97546339"
       d="m 116.34861,112.0346 q -7.8,0 -15.24,-2.04 -7.440003,-2.04 -11.880003,-5.16 l 5.76,-11.399997 q 4.32,2.88 10.320003,4.68 6.12,1.68 12,1.68 13.44,0 13.44,-7.08 0,-3.36 -3.48,-4.68 -3.36,-1.32 -10.92,-2.52 -7.92,-1.2 -12.96,-2.76 -4.920003,-1.56 -8.640003,-5.4 -3.6,-3.96 -3.6,-10.92 0,-9.12 7.56,-14.52 7.680003,-5.52 20.640003,-5.52 6.6,0 13.2,1.56 6.6,1.44 10.8,3.96 l -5.76,11.4 q -8.16,-4.8 -18.36,-4.8 -6.6,0 -10.08,2.04 -3.36,1.92 -3.36,5.16 0,3.6 3.6,5.16 3.72,1.44 11.4,2.76 7.68,1.2 12.6,2.76 4.92,1.56 8.4,5.28 3.6,3.72 3.6,10.56 0,8.999997 -7.8,14.399997 -7.8,5.4 -21.24,5.4 z"
       inkscape:connector-curvature="0" /><path
       id="path861"
       style="font-style:normal;font-variant:normal;font-weight:600;font-stretch:normal;font-size:120px;font-family:Montserrat;-inkscape-font-specification:'Montserrat, Semi-Bold';font-variant-ligatures:normal;font-variant-caps:normal;font-variant-numeric:normal;font-feature-settings:normal;text-align:start;writing-mode:lr-tb;text-anchor:start;fill:#006196;fill-opacity:1;stroke-width:3.97546339"
       d="m 187.82361,112.0346 q -9.96,0 -17.88,-4.2 -7.92,-4.2 -12.36,-11.639997 -4.44,-7.56 -4.44,-17.04 0,-9.48 4.44,-16.92 4.44,-7.44 12.24,-11.64 7.92,-4.2 18,-4.2 9.48,0 16.56,3.84 7.2,3.84 10.8,11.04 l -11.52,6.72 q -2.76,-4.44 -6.96,-6.6 -4.08,-2.28 -9,-2.28 -8.4,0 -13.92,5.52 -5.52,5.4 -5.52,14.52 0,9.12 5.4,14.64 5.52,5.4 14.04,5.4 4.92,0 9,-2.16 4.2,-2.28 6.96,-6.72 l 11.52,6.72 q -3.72,7.199997 -10.92,11.159997 -7.08,3.84 -16.44,3.84 z"
       inkscape:connector-curvature="0" /><path
       id="path863"
       style="font-style:normal;font-variant:normal;font-weight:600;font-stretch:normal;font-size:120px;font-family:Montserrat;-inkscape-font-specification:'Montserrat, Semi-Bold';font-variant-ligatures:normal;font-variant-caps:normal;font-variant-numeric:normal;font-feature-settings:normal;text-align:start;writing-mode:lr-tb;text-anchor:start;fill:#006196;fill-opacity:1;stroke-width:3.97546339"
       d="m 287.33548,79.514603 q 0,1.56 -0.24,4.44 h -50.28 q 1.32,7.08 6.84,11.28 5.64,4.08 13.92,4.08 10.56,0 17.4,-6.96 l 8.04,9.239997 q -4.32,5.16 -10.92,7.8 -6.6,2.64 -14.88,2.64 -10.56,0 -18.6,-4.2 -8.04,-4.2 -12.48,-11.639997 -4.32,-7.56 -4.32,-17.04 0,-9.36 4.2,-16.8 4.32,-7.56 11.88,-11.76 7.56,-4.2 17.04,-4.2 9.36,0 16.68,4.2 7.44,4.08 11.52,11.64 4.2,7.44 4.2,17.28 z m -32.4,-21.12 q -7.2,0 -12.24,4.32 -4.92,4.2 -6,11.28 h 36.36 q -0.96,-6.96 -5.88,-11.28 -4.92,-4.32 -12.24,-4.32 z"
       inkscape:connector-curvature="0" /><path
       id="path865"
       style="font-style:normal;font-variant:normal;font-weight:600;font-stretch:normal;font-size:120px;font-family:Montserrat;-inkscape-font-specification:'Montserrat, Semi-Bold';font-variant-ligatures:normal;font-variant-caps:normal;font-variant-numeric:normal;font-feature-settings:normal;text-align:start;writing-mode:lr-tb;text-anchor:start;fill:#006196;fill-opacity:1;stroke-width:3.97546339"
       d="m 321.42673,112.0346 q -7.8,0 -15.24,-2.04 -7.44,-2.04 -11.88,-5.16 l 5.76,-11.399997 q 4.32,2.88 10.32,4.68 6.12,1.68 12,1.68 13.44,0 13.44,-7.08 0,-3.36 -3.48,-4.68 -3.36,-1.32 -10.92,-2.52 -7.92,-1.2 -12.96,-2.76 -4.92,-1.56 -8.64,-5.4 -3.6,-3.96 -3.6,-10.92 0,-9.12 7.56,-14.52 7.68,-5.52 20.64,-5.52 6.6,0 13.2,1.56 6.6,1.44 10.8,3.96 l -5.76,11.4 q -8.16,-4.8 -18.36,-4.8 -6.6,0 -10.08,2.04 -3.36,1.92 -3.36,5.16 0,3.6 3.6,5.16 3.72,1.44 11.4,2.76 7.68,1.2 12.6,2.76 4.92,1.56 8.4,5.28 3.6,3.72 3.6,10.56 0,8.999997 -7.8,14.399997 -7.8,5.4 -21.24,5.4 z"
       inkscape:connector-curvature="0" /><path
       id="path867"
       style="font-style:normal;font-variant:normal;font-weight:600;font-stretch:normal;font-size:120px;font-family:Montserrat;-inkscape-font-specification:'Montserrat, Semi-Bold';font-variant-ligatures:normal;font-variant-caps:normal;font-variant-numeric:normal;font-feature-settings:normal;text-align:start;writing-mode:lr-tb;text-anchor:start;fill:#006196;fill-opacity:1;stroke-width:3.97546339"
       d="m 387.98173,46.394603 q 14.16,0 21.6,6.84 7.56,6.72 7.56,20.4 V 111.1946 h -14.16 v -7.8 q -2.76,4.2 -7.92,6.48 -5.04,2.16 -12.24,2.16 -7.2,0 -12.6,-2.4 -5.4,-2.52 -8.4,-6.84 -2.88,-4.439997 -2.88,-9.959997 0,-8.64 6.36,-13.8 6.48,-5.28 20.28,-5.28 h 16.56 v -0.96 q 0,-6.72 -4.08,-10.32 -3.96,-3.6 -11.88,-3.6 -5.4,0 -10.68,1.68 -5.16,1.68 -8.76,4.68 l -5.88,-10.92 q 5.04,-3.84 12.12,-5.88 7.08,-2.04 15,-2.04 z m -2.04,54.719997 q 5.64,0 9.96,-2.519997 4.44,-2.64 6.24,-7.44 v -7.44 h -15.48 q -12.96,0 -12.96,8.52 0,4.08 3.24,6.48 3.24,2.399997 9,2.399997 z"
       inkscape:connector-curvature="0" /></g><g
     id="text853-7-6-6-0-4-55"
     style="font-style:italic;font-variant:normal;font-weight:bold;font-stretch:normal;font-size:53.33333206px;line-height:1.25;font-family:Montserrat;-inkscape-font-specification:'Montserrat, Bold Italic';font-variant-ligatures:normal;font-variant-caps:normal;font-variant-numeric:normal;font-feature-settings:normal;text-align:start;letter-spacing:0px;word-spacing:0px;writing-mode:lr-tb;text-anchor:start;fill:#f15a24;fill-opacity:1;stroke:none;stroke-width:2.22678924"
     transform="scale(1.0445867,0.95731642)"
     aria-label="solutions"><path
       id="path838"
       style="font-style:italic;font-variant:normal;font-weight:bold;font-stretch:normal;font-size:53.33333206px;font-family:Montserrat;-inkscape-font-specification:'Montserrat, Bold Italic';font-variant-ligatures:normal;font-variant-caps:normal;font-variant-numeric:normal;font-feature-settings:normal;text-align:start;writing-mode:lr-tb;text-anchor:start;fill:#f15a24;fill-opacity:1;stroke-width:2.22678924"
       d="m 160.07697,166.48409 q -3.73333,0 -7.09333,-0.8 -3.30667,-0.85334 -5.17333,-2.18667 l 3.2,-6.02667 q 1.86666,1.22667 4.53333,1.97334 2.72,0.74666 5.44,0.74666 2.82667,0 4.21333,-0.69333 1.38667,-0.74667 1.38667,-2.08 0,-1.06667 -1.22667,-1.54667 -1.22666,-0.48 -3.94666,-1.01333 -3.09334,-0.58667 -5.12,-1.28 -1.97334,-0.69333 -3.46667,-2.24 -1.44,-1.6 -1.44,-4.32 0,-4.74667 3.94667,-7.41333 4,-2.66667 10.45333,-2.66667 2.98667,0 5.81333,0.64 2.82667,0.64 4.8,1.76 l -2.98666,6.08 q -3.52,-2.18667 -8.48,-2.18667 -2.72,0 -4.16,0.8 -1.38667,0.8 -1.38667,2.02667 0,1.12 1.22667,1.65333 1.22666,0.48 4.10666,1.06667 3.04,0.58667 4.96,1.28 1.97334,0.64 3.41334,2.18667 1.44,1.54666 1.44,4.21333 0,4.8 -4.05334,7.41333 -4,2.61334 -10.4,2.61334 z"
       inkscape:connector-curvature="0" /><path
       id="path840"
       style="font-style:italic;font-variant:normal;font-weight:bold;font-stretch:normal;font-size:53.33333206px;font-family:Montserrat;-inkscape-font-specification:'Montserrat, Bold Italic';font-variant-ligatures:normal;font-variant-caps:normal;font-variant-numeric:normal;font-feature-settings:normal;text-align:start;writing-mode:lr-tb;text-anchor:start;fill:#f15a24;fill-opacity:1;stroke-width:2.22678924"
       d="m 192.94364,166.48409 q -4.32,0 -7.62667,-1.6 -3.25333,-1.6 -5.06667,-4.48 -1.76,-2.93334 -1.76,-6.77334 0,-4.74666 2.24,-8.53333 2.24,-3.78667 6.18667,-5.97333 3.94667,-2.18667 8.90667,-2.18667 4.37333,0 7.62666,1.6 3.25334,1.6 5.01334,4.53333 1.81333,2.88 1.81333,6.72 0,4.74667 -2.24,8.53334 -2.18667,3.78666 -6.18667,5.97333 -3.94666,2.18667 -8.90666,2.18667 z m 0.53333,-6.88 q 2.4,0 4.32,-1.17334 1.92,-1.22666 2.98667,-3.36 1.06666,-2.13333 1.06666,-4.90666 0,-2.93334 -1.70666,-4.64 -1.70667,-1.70667 -4.8,-1.70667 -2.45334,0 -4.37334,1.22667 -1.92,1.17333 -2.98666,3.30666 -1.06667,2.13334 -1.06667,4.90667 0,2.93333 1.70667,4.64 1.76,1.70667 4.85333,1.70667 z"
       inkscape:connector-curvature="0" /><path
       id="path842"
       style="font-style:italic;font-variant:normal;font-weight:bold;font-stretch:normal;font-size:53.33333206px;font-family:Montserrat;-inkscape-font-specification:'Montserrat, Bold Italic';font-variant-ligatures:normal;font-variant-caps:normal;font-variant-numeric:normal;font-feature-settings:normal;text-align:start;writing-mode:lr-tb;text-anchor:start;fill:#f15a24;fill-opacity:1;stroke-width:2.22678924"
       d="m 220.74614,126.48409 h 8.32 l -7.89334,39.57333 h -8.32 z"
       inkscape:connector-curvature="0" /><path
       id="path844"
       style="font-style:italic;font-variant:normal;font-weight:bold;font-stretch:normal;font-size:53.33333206px;font-family:Montserrat;-inkscape-font-specification:'Montserrat, Bold Italic';font-variant-ligatures:normal;font-variant-caps:normal;font-variant-numeric:normal;font-feature-settings:normal;text-align:start;writing-mode:lr-tb;text-anchor:start;fill:#f15a24;fill-opacity:1;stroke-width:2.22678924"
       d="m 263.5078,137.36409 -5.70667,28.69333 h -7.89333 l 0.58667,-3.09333 q -1.86667,1.76 -4.26667,2.66666 -2.4,0.85334 -5.06667,0.85334 -4.69333,0 -7.52,-2.56 -2.77333,-2.56 -2.77333,-7.2 0,-1.76 0.37333,-3.46667 l 3.14667,-15.89333 h 8.32 l -3.04,15.36 q -0.21333,1.01333 -0.21333,2.08 0,4.48 4.8,4.48 3.14666,0 5.17333,-1.81334 2.08,-1.86666 2.82667,-5.54666 l 2.93333,-14.56 z"
       inkscape:connector-curvature="0" /><path
       id="path846"
       style="font-style:italic;font-variant:normal;font-weight:bold;font-stretch:normal;font-size:53.33333206px;font-family:Montserrat;-inkscape-font-specification:'Montserrat, Bold Italic';font-variant-ligatures:normal;font-variant-caps:normal;font-variant-numeric:normal;font-feature-settings:normal;text-align:start;writing-mode:lr-tb;text-anchor:start;fill:#f15a24;fill-opacity:1;stroke-width:2.22678924"
       d="m 276.8678,155.92409 q -0.10667,0.42666 -0.10667,1.17333 0,2.77333 3.04,2.77333 1.65333,0 3.36,-1.01333 l 1.22667,5.92 q -2.77334,1.70667 -7.14667,1.70667 -4.05333,0 -6.50667,-2.13334 -2.45333,-2.13333 -2.45333,-5.86666 0,-1.06667 0.26667,-2.50667 l 2.29333,-11.57333 h -4.42667 l 1.28,-6.4 h 4.42667 l 1.38667,-6.98667 h 8.32 l -1.38667,6.98667 h 7.14667 l -1.28,6.4 h -7.14667 z"
       inkscape:connector-curvature="0" /><path
       id="path848"
       style="font-style:italic;font-variant:normal;font-weight:bold;font-stretch:normal;font-size:53.33333206px;font-family:Montserrat;-inkscape-font-specification:'Montserrat, Bold Italic';font-variant-ligatures:normal;font-variant-caps:normal;font-variant-numeric:normal;font-feature-settings:normal;text-align:start;writing-mode:lr-tb;text-anchor:start;fill:#f15a24;fill-opacity:1;stroke-width:2.22678924"
       d="m 294.49696,137.36409 h 8.26667 l -5.70667,28.69333 h -8.26666 z m 5.54667,-4 q -2.13333,0 -3.52,-1.22667 -1.33333,-1.28 -1.33333,-3.09333 0,-2.13334 1.49333,-3.52 1.54667,-1.44 4,-1.44 2.18667,0 3.52,1.22666 1.38667,1.17334 1.38667,2.93334 0,2.29333 -1.54667,3.73333 -1.54667,1.38667 -4,1.38667 z"
       inkscape:connector-curvature="0" /><path
       id="path850"
       style="font-style:italic;font-variant:normal;font-weight:bold;font-stretch:normal;font-size:53.33333206px;font-family:Montserrat;-inkscape-font-specification:'Montserrat, Bold Italic';font-variant-ligatures:normal;font-variant-caps:normal;font-variant-numeric:normal;font-feature-settings:normal;text-align:start;writing-mode:lr-tb;text-anchor:start;fill:#f15a24;fill-opacity:1;stroke-width:2.22678924"
       d="m 319.81863,166.48409 q -4.32,0 -7.62666,-1.6 -3.25334,-1.6 -5.06667,-4.48 -1.76,-2.93334 -1.76,-6.77334 0,-4.74666 2.24,-8.53333 2.24,-3.78667 6.18667,-5.97333 3.94666,-2.18667 8.90666,-2.18667 4.37334,0 7.62667,1.6 3.25333,1.6 5.01333,4.53333 1.81334,2.88 1.81334,6.72 0,4.74667 -2.24,8.53334 -2.18667,3.78666 -6.18667,5.97333 -3.94667,2.18667 -8.90667,2.18667 z m 0.53334,-6.88 q 2.4,0 4.32,-1.17334 1.92,-1.22666 2.98666,-3.36 1.06667,-2.13333 1.06667,-4.90666 0,-2.93334 -1.70667,-4.64 -1.70666,-1.70667 -4.8,-1.70667 -2.45333,0 -4.37333,1.22667 -1.92,1.17333 -2.98667,3.30666 -1.06666,2.13334 -1.06666,4.90667 0,2.93333 1.70666,4.64 1.76,1.70667 4.85334,1.70667 z"
       inkscape:connector-curvature="0" /><path
       id="path852"
       style="font-style:italic;font-variant:normal;font-weight:bold;font-stretch:normal;font-size:53.33333206px;font-family:Montserrat;-inkscape-font-specification:'Montserrat, Bold Italic';font-variant-ligatures:normal;font-variant-caps:normal;font-variant-numeric:normal;font-feature-settings:normal;text-align:start;writing-mode:lr-tb;text-anchor:start;fill:#f15a24;fill-opacity:1;stroke-width:2.22678924"
       d="m 362.1278,136.93742 q 4.79999,0 7.62666,2.56 2.82667,2.50667 2.82667,7.2 0,1.76 -0.37334,3.46667 l -3.2,15.89333 h -8.31999 l 3.09333,-15.36 q 0.21333,-0.90667 0.21333,-1.97333 0,-2.24 -1.22666,-3.41334 -1.22667,-1.17333 -3.68,-1.17333 -3.2,0 -5.33334,1.86667 -2.08,1.81333 -2.82666,5.49333 l -2.88,14.56 h -8.32 l 5.70666,-28.69333 h 7.89334 l -0.64,3.09333 q 3.84,-3.52 9.44,-3.52 z"
       inkscape:connector-curvature="0" /><path
       id="path854"
       style="font-style:italic;font-variant:normal;font-weight:bold;font-stretch:normal;font-size:53.33333206px;font-family:Montserrat;-inkscape-font-specification:'Montserrat, Bold Italic';font-variant-ligatures:normal;font-variant-caps:normal;font-variant-numeric:normal;font-feature-settings:normal;text-align:start;writing-mode:lr-tb;text-anchor:start;fill:#f15a24;fill-opacity:1;stroke-width:2.22678924"
       d="m 387.05613,166.48409 q -3.73333,0 -7.09333,-0.8 -3.30667,-0.85334 -5.17334,-2.18667 l 3.2,-6.02667 q 1.86667,1.22667 4.53334,1.97334 2.72,0.74666 5.44,0.74666 2.82666,0 4.21333,-0.69333 1.38667,-0.74667 1.38667,-2.08 0,-1.06667 -1.22667,-1.54667 -1.22667,-0.48 -3.94667,-1.01333 -3.09333,-0.58667 -5.12,-1.28 -1.97333,-0.69333 -3.46666,-2.24 -1.44,-1.6 -1.44,-4.32 0,-4.74667 3.94666,-7.41333 4,-2.66667 10.45334,-2.66667 2.98666,0 5.81333,0.64 2.82666,0.64 4.8,1.76 l -2.98667,6.08 q -3.52,-2.18667 -8.48,-2.18667 -2.72,0 -4.16,0.8 -1.38666,0.8 -1.38666,2.02667 0,1.12 1.22666,1.65333 1.22667,0.48 4.10667,1.06667 3.04,0.58667 4.96,1.28 1.97333,0.64 3.41333,2.18667 1.44,1.54666 1.44,4.21333 0,4.8 -4.05333,7.41333 -4,2.61334 -10.4,2.61334 z"
       inkscape:connector-curvature="0" /></g><path
     inkscape:export-ydpi="71"
     inkscape:export-xdpi="71"
     sodipodi:nodetypes="cccc"
     inkscape:connector-curvature="0"
     id="rect1020-6"
     d="m 371.85633,37.101131 71.52749,-25.737084 -8.99269,68.938321 C 427.2696,36.821027 419.11182,30.559197 371.85633,37.101131 Z"
     style="opacity:1;fill:#f15a24;fill-opacity:1;stroke:none;stroke-width:4.18417263;stroke-linecap:butt;stroke-linejoin:miter;stroke-miterlimit:4;stroke-dasharray:none;stroke-opacity:1" /></g></svg>